<?xml version="1.0" encoding="utf-8"?>
<!-- Generator: Adobe Illustrator 23.0.3, SVG Export Plug-In . SVG Version: 6.00 Build 0)  -->
<svg version="1.1" id="Layer_1" xmlns="http://www.w3.org/2000/svg" xmlns:xlink="http://www.w3.org/1999/xlink" x="0px" y="0px"
	 viewBox="0 0 122.9 118.3" style="enable-background:new 0 0 122.9 118.3;" xml:space="preserve">
<style type="text/css">
	.st0{fill-rule:evenodd;clip-rule:evenodd;fill:#FFFFFF;}
</style>
<title>work-schedule</title>
<path class="st0" d="M95.5,63.7c15.1,0,27.4,12.2,27.4,27.3s-12.2,27.4-27.3,27.4S68.2,106.1,68.2,91c0,0,0,0,0,0
	C68.2,75.9,80.4,63.7,95.5,63.7z M74.1,3.4c0-1.9,1.8-3.4,4-3.4s4,1.5,4,3.4v16c0,1.9-1.8,3.4-4,3.4s-4-1.5-4-3.4V3.4z M27.3,4.1
	c0-2.2,2.2-4,4.9-4s5,1.8,5,4.1v18.8c0,2.2-2.2,4.1-4.9,4.1s-4.9-1.8-4.9-4C27.3,23,27.3,4.1,27.3,4.1z M63.9,111.9H10.2
	c-5.6,0-10.2-4.6-10.2-10.2V20.5c0-5.6,4.6-10.2,10.2-10.2h9.4v12.6c0,3.4,1.6,6.6,4.3,8.8c4.9,3.9,11.8,3.9,16.7,0
	c2.7-2.1,4.2-5.3,4.3-8.8V10.3h19.1v12.6c0,3.4,1.6,6.6,4.3,8.8c4.9,3.9,11.8,3.9,16.7,0c2.7-2.1,4.2-5.3,4.3-8.8V10.3H99
	c5.6,0,10.2,4.6,10.2,10.2v35.1c-1.4-0.6-2.9-1-4.4-1.4V39.9H4.4v59.6c0,4.4,3.6,8,8.1,8h49C62.2,109,63,110.5,63.9,111.9
	L63.9,111.9z M19.7,56.2l3.5,3.3l7.1-7.2c0.7-0.8,1.2-1.3,2.1-0.4l3,3c1,1,0.9,1.5,0,2.4L24.8,67.6c-1.9,1.9-1.6,2-3.5,0.1l-6.6-6.5
	c-0.3-0.3-0.4-0.9-0.1-1.2c0,0,0.1-0.1,0.1-0.1l3.4-3.5C18.7,55.7,19.2,55.7,19.7,56.2z M48,51.7h14.7c1,0,1.9,0.8,1.9,1.9v12.2
	c0,1-0.8,1.9-1.9,1.9H48c-1,0-1.9-0.8-1.9-1.9V53.6C46.1,52.5,47,51.7,48,51.7z M77.6,51.7h14.7c0.8,0,1.6,0.6,1.8,1.4
	c-6.5,0.2-12.8,2.2-18.3,5.5v-5.1C75.7,52.5,76.6,51.7,77.6,51.7L77.6,51.7z M48,77.7h12c-1.6,4.3-2.4,8.8-2.4,13.3
	c0,0.9,0,1.7,0.1,2.6H48c-1,0-1.9-0.8-1.9-1.9V79.5C46.1,78.5,47,77.7,48,77.7z M18.4,77.7h14.7c1,0,1.9,0.8,1.9,1.8c0,0,0,0,0,0
	v12.2c0,1-0.9,1.9-1.9,1.9H18.4c-1,0-1.9-0.8-1.9-1.9l0,0V79.5C16.6,78.5,17.4,77.7,18.4,77.7C18.4,77.7,18.4,77.7,18.4,77.7
	L18.4,77.7z M91.7,77.2h3.3c0.6,0,1.1,0.5,1.1,1.1c0,0,0,0,0,0v12.9H108c0.6,0,1.1,0.5,1.1,1.1v3.3c0,0.6-0.5,1.1-1.1,1.1H90.6V78.4
	C90.6,77.7,91.1,77.2,91.7,77.2L91.7,77.2z M95.5,69.9c11.7,0,21.1,9.4,21.2,21.1s-9.4,21.1-21.1,21.2c-11.7,0-21.1-9.4-21.2-21.1
	c0,0,0,0,0,0C74.4,79.3,83.9,69.9,95.5,69.9C95.5,69.9,95.5,69.9,95.5,69.9L95.5,69.9z"/>
</svg>
