<?xml version="1.0" encoding="utf-8"?>
<!-- Generator: Adobe Illustrator 23.0.3, SVG Export Plug-In . SVG Version: 6.00 Build 0)  -->
<svg version="1.1" id="Layer_1" xmlns="http://www.w3.org/2000/svg" xmlns:xlink="http://www.w3.org/1999/xlink" x="0px" y="0px"
	 viewBox="0 0 122.9 66.5" style="enable-background:new 0 0 122.9 66.5;" xml:space="preserve">
<style type="text/css">
	.st0{fill-rule:evenodd;clip-rule:evenodd;fill:#FFFFFF;}
</style>
<title>leaderboard</title>
<path class="st0" d="M2.3,18.3H34c1.3,0,2.3,1,2.3,2.3l0,0v43.7c0,1.3-1,2.3-2.3,2.3H2.3c-1.3,0-2.3-1-2.3-2.3V20.6
	C0,19.3,1,18.3,2.3,18.3C2.3,18.3,2.3,18.3,2.3,18.3z M68.4,9.4V31H61V17.4l-4.5,1.8l-2-5.3l7.7-4.4L68.4,9.4z M26,49.5H11v-5.6
	l2.8-2.8c0.6-0.6,1.2-1.1,1.8-1.7L17,38c0.4-0.4,0.7-0.8,1-1.2c0.2-0.3,0.4-0.6,0.5-1c0.1-0.2,0.1-0.5,0.1-0.7
	c0.1-0.4-0.1-0.9-0.5-1.1c-0.6-0.2-1.1-0.3-1.7-0.2c-1.4,0-2.9,0.1-4.3,0.4l-0.7,0.1L11,28.6c2.3-0.8,4.7-1.2,7.1-1.2
	c2.1-0.1,4.2,0.5,5.9,1.7c1.4,1.1,2.2,2.9,2.1,4.7c0.1,1.6-0.3,3.2-1,4.7c-1,1.4-2.2,2.7-3.7,3.6l-2.2,1.5H26V49.5L26,49.5z
	 M103.1,37.2c3.2,0,5.5,0.5,7,1.4c1.5,0.9,2.2,2.5,2.2,4.8c0,0.9-0.1,1.9-0.4,2.8c-0.4,0.7-0.9,1.3-1.6,1.7c0.7,0.5,1.3,1.1,1.7,1.9
	c0.4,0.8,0.6,1.7,0.5,2.6c0,2.7-0.7,4.6-2.1,5.7s-3.6,1.6-6.6,1.5c-2,0-3.9-0.2-5.8-0.6l-1.1-0.2l0.2-5.8c2.5,0.2,4.3,0.3,5.4,0.3
	c0.7,0,1.4,0,2.1-0.2c0.3-0.1,0.6-0.4,0.5-0.8c0-0.3-0.1-0.6-0.4-0.8c-0.4-0.2-0.9-0.4-1.4-0.3h-4.6v-5.8h4.3c1.2,0,1.8-0.3,1.8-1
	s-0.8-1-2.3-1c-1,0-2.5,0.1-4.5,0.2l-0.8,0.1L97,38.1C99,37.6,101,37.2,103.1,37.2L103.1,37.2z M45.5,0h31.8c1.3,0,2.3,1,2.3,2.3v62
	c0,1.3-1,2.3-2.3,2.3H45.5c-1.3,0-2.3-1-2.3-2.3v-62C43.3,1,44.3,0,45.5,0C45.5,0,45.5,0,45.5,0z M88.8,30.4h31.8
	c1.3,0,2.3,1,2.3,2.3v31.6c0,1.3-1,2.3-2.3,2.3H88.8c-1.3,0-2.3-1-2.3-2.3V32.6C86.6,31.4,87.6,30.4,88.8,30.4z"/>
</svg>
