<?xml version="1.0" encoding="utf-8"?>
<!-- Generator: Adobe Illustrator 23.0.3, SVG Export Plug-In . SVG Version: 6.00 Build 0)  -->
<svg version="1.1" id="Calque_1" xmlns="http://www.w3.org/2000/svg" xmlns:xlink="http://www.w3.org/1999/xlink" x="0px" y="0px"
	 viewBox="0 0 1788 636" style="enable-background:new 0 0 1788 636;" xml:space="preserve">
<style type="text/css">
	.st0{fill:#FFFFFF;}
	.st1{fill:#ECEFF1;}
	.st2{fill:#85A2C6;}
	.st3{fill:#4D4D4D;}
	.st4{fill:#5A5B5B;}
</style>
<g>
	<path class="st0" d="M504.6,401.6c-1.4-2.9-2.1-6.5-2.1-10.7c0-6.6,0.3-14.7,1-24.4l0.5-7.8l0.5-16c0-7-0.6-22.7-1.8-47
		s-1.8-39.9-1.8-47c0-0.6,0-1.8,0.1-3.5s0.1-4.4,0.1-8c0.2-4,0.3-8.9,0.3-14.7c0-14.6-0.8-24-2.5-28c-1,0-3.2,0.3-6.5,0.9l-7,0.6
		c-2.2,0-4.1-0.8-5.8-2.3s-2.5-3.5-2.5-5.9s2-4.5,6-6.3c5.9-2.4,15.9-4.1,30-5.1c5.7-0.4,9.1-0.6,10.3-0.6c2,0,3.9,0.8,5.5,2.4
		c1.7,1.6,2.5,3.6,2.5,6s-0.7,4.4-2.1,5.9c-1.4,1.5-3.2,2.3-5.4,2.3l-4.5-0.3c-1.3-0.2-2.9-0.3-4.5-0.3h-2.6c1.2,13.6,1.8,26,1.8,37
		l-0.3,19.3c-0.2,5.8-0.3,12.3-0.3,19.6c0,9.6,0.3,21.2,1,34.6c0.8,16.7,1.3,28.2,1.3,34.6c0,7.6,0.3,16.7,1,27.1
		c0.7,10.6,1,19.7,1,27.1c0,9.8-2.4,14.7-7.3,14.7C508,405.9,506,404.5,504.6,401.6z"/>
	<path class="st0" d="M583.3,405.2c-3.2-2.1-5.8-5.2-7.8-9.2c-4-8.4-6.6-18-7.8-28.6c-1.2-9.2-1.8-20.3-1.8-33.1
		c-0.5-21.7-0.8-48.2-0.8-79.5l-0.3-23.2c-0.2-1.2-0.3-3.2-0.3-6c-0.3-7.6-0.5-12.2-0.5-13.8c1.5-4.2,3.3-6.3,5.3-6.3
		s3.8,1.8,5.4,5.4c1.6,3.6,2.4,7.5,2.4,11.7v81.9c0,8,0.6,18.7,1.8,31.9c1.2,16.5,1.8,27.1,1.8,31.9c0,14.9,5.3,22.3,15.9,22.3
		c12.1,0,18.1-54,18.1-161.9v-16.9v-2.7c-0.2-0.6-0.3-1.4-0.3-2.4c0-2.4,0.5-4.2,1.4-5.3s2.7-1.7,5.4-1.7c2.2,0,3.9,0.8,5.2,2.3
		s2.1,3.3,2.4,5.3c0.2,1.2,0.3,3.5,0.3,6.9c0,3.2-0.3,8.3-0.8,15.4c-0.7,5.8-1,10.8-1,15c0,4.6-0.2,8.7-0.5,12.3l-0.5,12.6v2.4
		c0.2,0.8,0.3,1.7,0.3,2.7c0,89.1-10.8,133.6-32.5,133.6C590.1,408.3,586.5,407.3,583.3,405.2z"/>
	<path class="st0" d="M672.1,399l-0.3-11.7c-0.2-3.4-0.3-7.2-0.3-11.4l0.3-10.2c-0.5-2.2-1.8-24.2-3.8-65.9s-3.2-68.5-3.5-80.4
		c-9.7-0.4-15.9-1.6-18.6-3.6c-1.8-1.6-2.8-3.4-2.8-5.4c0-1.6,0.9-3.1,2.6-4.4c1.8-1.3,3.6-2,5.4-2c4.7,0,10.4,0.4,17.1,1.2
		c6.4,1,12.1,1.5,17.1,1.5h2h2c5.2,0,7.8,2.4,7.8,7.2c0,2.4-0.8,4.4-2.5,5.9s-3.6,2.3-5.8,2.3c-1.5,0-3.7-0.3-6.5-0.9l-5-1.2
		l-0.3,1.5l-0.3,1.5c0,17.9,1.4,46.4,4.3,85.5c2.7,36.7,4,65.2,4,85.5c0,2.4-0.9,4.5-2.6,6.3c-1.8,1.8-3.7,2.7-5.9,2.7L672.1,399z"
		/>
	<path class="st0" d="M719.3,404.1c-2.1-2-3.3-4.6-3.7-7.8l2.8-5.1c1,0,2.6,0.4,4.8,1.2c2.5,0.6,4.4,0.9,5.8,0.9
		c3,0,5.7-1.6,8.2-4.8c2.4-3.2,4.2-7.4,5.4-12.6c2.2-9.6,3.3-18.3,3.3-25.9c0-13.2-3.5-27.2-10.6-41.8l-2.8-5.7
		c-3.2-6.6-5.9-12.5-8.1-17.8c-2.2-5.2-4-10.8-5.5-16.9c-2-7.8-3-15.7-3-23.5c0-8.8,1.7-18.1,5-27.7c1.7-4.6,4.1-8.4,7.2-11.3
		c3.1-2.9,6.6-4.4,10.4-4.4c3,0,5.8,1.2,8.4,3.5c2.6,2.3,3.9,5.1,3.9,8.3c0,1.8-0.6,3.2-1.8,4.2s-2.6,1.5-4.3,1.5
		c-1.8,0-3.6-0.6-5.3-1.8c-3.7,0.2-6.6,4.1-8.8,11.7c-1.8,7-2.8,12.8-2.8,17.5c0,5.8,0.8,11.7,2.3,17.6s3.4,11.3,5.8,16.1l5.5,12
		l8.8,19.9c2.3,5.6,4.2,12.1,5.7,19.6c1.4,7.4,2.1,15,2.1,22.6c0,12.2-2.4,23.9-7,34.9c-2.4,5.6-5.7,10.1-9.9,13.5
		c-4.3,3.4-9,5.1-14.2,5.1v0.9C724,407.4,721.4,406.1,719.3,404.1z"/>
	<path class="st0" d="M820.4,354.1l0.3-17.2l0.3-13.8v-0.9v-3c0.2-1.6,0.3-3.5,0.3-5.7c0-0.4-0.3-0.9-0.8-1.5s-0.8-1.1-0.8-1.5v-0.3
		c-0.8,0.4-2.4,0.6-4.5,0.6c-2.2,0-4.9-0.4-8.1-1.2c-1-0.2-3.7-0.7-8.1-1.5v34.6c0,5.2,0.3,13.4,0.8,24.7c0.5,11,0.8,19.3,0.8,24.7
		c0,3-0.7,5.6-2,7.8c-1.3,2.2-3.1,3.3-5.3,3.3c-3.2,0-5.5-3.7-6.8-11.1c-1.3-7.6-2-17.6-2-29.8l0.5-24.4c0.2-6.8,0.3-14,0.3-21.7
		v-5.1v-4.2c0-3.2-0.1-5.3-0.3-6.3v-1.5l0.8-17.5c0-7.6-0.3-19-0.8-34c-0.5-15.1-0.8-26.4-0.8-34c0-2.4,0.7-4.5,2-6.3s3-2.7,5-2.7
		c5.4,0,8.1,6,8.1,18.1l-0.5,37.3c-0.3,11.2-0.5,23.8-0.5,37.6c2.5,1,7,1.5,13.6,1.5h9.3c0.3-1.2,0.5-2.4,0.5-3.6
		c0-9.6-0.5-23.9-1.5-42.7c-1.2-17.7-1.8-32-1.8-43c0-2.2,0.7-4.1,2.1-5.6c1.4-1.5,3.1-2.3,5.2-2.3c1.2,0,2.9,0.5,5,1.5l2.3,1.2
		c0,28.5,0.8,66.5,2.5,114.1l2.3,76.2c0,2.8-0.9,5-2.6,6.6c-1.8,1.6-3.8,2.4-6.2,2.4C823.3,403.8,820.4,387.3,820.4,354.1z"/>
	<path class="st0" d="M858.7,394.5c0-4.8,2.6-7.2,7.8-7.2h2.8l2.5,0.3c1.3,0,2.3-0.5,2.8-1.5s0.8-2.8,0.8-5.4c0-3.4-0.2-8.7-0.5-16
		c-0.5-4.8-1.1-13.4-1.8-25.9c-1.5-30.7-2.3-53.9-2.3-69.5c0-5.6,0.1-10.7,0.3-15.4l0.3-15.4c0-6.6-0.3-12.1-0.8-16.6
		c-2.7,0.8-4.6,1.2-5.8,1.2c-4,0-6-2.4-6-7.2c0-2.4,1.3-4.5,3.8-6.3s5.7-3.1,9.6-3.9c6.7-1.6,12.7-2.4,17.9-2.4c2,0,3.7,0.9,5.2,2.6
		c1.4,1.7,2.1,3.7,2.1,5.9s-0.5,4.1-1.6,5.7c-1.1,1.6-2.5,2.4-4.2,2.4c-1,0-1.8-0.1-2.5-0.3h-2c-1.7,0-2.9,0.5-3.7,1.4
		s-1.1,2.6-1.1,5c0,19.5,1,48.8,3,87.9c0.3,7.2,1,17.9,2,31.9c0.8,9.2,1.3,18.7,1.3,28.3v11.4c1-0.2,2.7-0.3,5-0.3
		c7,0,10.6,3.5,10.6,10.5v1.8l-6.3,5.1c-0.2,0-0.7,0.1-1.6,0.2c-0.9,0.1-2.6,0.2-5.2,0.2c-5.4,0.4-8.8,0.6-10.3,0.6
		C866,403.5,858.7,400.5,858.7,394.5z"/>
	<path class="st0" d="M941.3,405c-2.7,2-5.5,3-8.6,3c-2,0-3.7-1.1-5.2-3.2c-1.4-2.1-2.1-4.4-2.1-6.8c0-16.9,0.6-39.3,1.8-67.4
		c1-29.9,1.5-52.3,1.5-67.1v-2.1c-1-12.6-1.5-22.1-1.5-28.3c0-19.1,2.9-28.6,8.8-28.6c1.7,0,3.1,0.8,4.4,2.3s1.9,3.3,1.9,5.3
		c0,2.4-0.3,6.2-0.8,11.4c-0.5,5-0.8,8.8-0.8,11.4c0,13.4,0.1,25.6,0.3,36.4c0.2,10.6,0.3,22.7,0.3,36.1c-0.8,3-1.3,7.2-1.3,12.6
		v3.6l-0.5,23.8c-0.3,7-0.5,15-0.5,24.1c0,13.8,2.8,20.8,8.3,20.8c0.3,0,0.9,0,1.6-0.2c0.8-0.1,1.8-0.2,3.1-0.2
		c1.5-0.2,3.4-0.3,5.8-0.3c9.1,0,13.6,3,13.6,9c0,2-0.8,3.7-2.3,5.1s-3.4,2.3-5.5,2.7C957.6,406.2,950.2,405,941.3,405z"/>
	<path class="st0" d="M1008.8,405c-2.7,2-5.5,3-8.6,3c-2,0-3.7-1.1-5.2-3.2c-1.4-2.1-2.1-4.4-2.1-6.8c0-16.9,0.6-39.3,1.8-67.4
		c1-29.9,1.5-52.3,1.5-67.1v-2.1c-1-12.6-1.5-22.1-1.5-28.3c0-19.1,2.9-28.6,8.8-28.6c1.7,0,3.1,0.8,4.4,2.3s1.9,3.3,1.9,5.3
		c0,2.4-0.3,6.2-0.8,11.4c-0.5,5-0.8,8.8-0.8,11.4c0,13.4,0.1,25.6,0.3,36.4c0.2,10.6,0.3,22.7,0.3,36.1c-0.8,3-1.3,7.2-1.3,12.6
		v3.6l-0.5,23.8c-0.3,7-0.5,15-0.5,24.1c0,13.8,2.8,20.8,8.3,20.8c0.3,0,0.9,0,1.6-0.2c0.8-0.1,1.8-0.2,3.1-0.2
		c1.5-0.2,3.4-0.3,5.8-0.3c9.1,0,13.6,3,13.6,9c0,2-0.8,3.7-2.3,5.1s-3.4,2.3-5.5,2.7C1025.1,406.2,1017.6,405,1008.8,405z"/>
	<path class="st0" d="M1118.6,401.6c-1.4-2.9-2.1-6.5-2.1-10.7c0-6.6,0.3-14.7,1-24.4l0.5-7.8l0.5-16c0-7-0.6-22.7-1.8-47
		c-1.2-24.3-1.8-39.9-1.8-47c0-0.6,0-1.8,0.1-3.5s0.1-4.4,0.1-8c0.2-4,0.3-8.9,0.3-14.7c0-14.6-0.8-24-2.5-28c-1,0-3.2,0.3-6.5,0.9
		l-7,0.6c-2.2,0-4.1-0.8-5.8-2.3c-1.7-1.5-2.5-3.5-2.5-5.9s2-4.5,6-6.3c5.9-2.4,15.9-4.1,30-5.1c5.7-0.4,9.1-0.6,10.3-0.6
		c2,0,3.9,0.8,5.5,2.4c1.7,1.6,2.5,3.6,2.5,6s-0.7,4.4-2.1,5.9s-3.2,2.3-5.4,2.3l-4.5-0.3c-1.3-0.2-2.9-0.3-4.5-0.3h-2.5
		c1.2,13.6,1.8,26,1.8,37l-0.3,19.3c-0.2,5.8-0.3,12.3-0.3,19.6c0,9.6,0.3,21.2,1,34.6c0.8,16.7,1.3,28.2,1.3,34.6
		c0,7.6,0.3,16.7,1,27.1c0.7,10.6,1,19.7,1,27.1c0,9.8-2.4,14.7-7.3,14.7C1122,405.9,1120.1,404.5,1118.6,401.6z"/>
	<path class="st0" d="M1189.3,404.6c-3.7-3.3-6.7-7.8-9.1-13.4c-4.9-12.2-7.9-25.6-9.1-40c-1.5-13.6-2.3-26.8-2.3-39.4
		c0-2.4,0.1-4.4,0.3-6v-5.4c0-1-0.1-1.5-0.3-1.5v-5.4l0.3-21.1c0.2-6.4,0.8-16.7,2-30.7c0.8-9.6,2.8-19,5.8-28
		c1.2-4,2.7-7.1,4.5-9.2c1.8-2.1,3.9-3.2,6.3-3.2c6.7,0,12.8,1.5,18.1,4.4c5.4,2.9,9.9,7,13.6,12.2c3.4,5,6.2,11.2,8.6,18.5
		c2.3,7.3,4,15.1,5,23.3c1,8.4,1.5,17.4,1.5,26.8v2.4c0,6.2,0.1,11.8,0.3,16.9l0.3,17.2c0,57.8-11.2,86.7-33.7,86.7
		C1197,409.5,1193,407.9,1189.3,404.6z M1208.7,392.5c2.5-2.9,4.4-6.9,5.8-11.9c3.2-10.2,5.1-21.3,5.8-33.1
		c0.8-10.2,1.3-19.1,1.3-26.5c0-9-0.6-20.9-1.8-35.5c-1-15.4-1.5-27-1.5-34.6v-5.4c-0.3-7.6-2.5-14.2-6.4-19.9
		c-3.9-5.6-8.8-8.4-14.5-8.4s-9.5,3.9-11.3,11.7c-1.7,6.2-2.5,14.3-2.5,24.1c0,3.8,0.1,7,0.3,9.6v8.1l-0.5,13.8
		c-0.3,4.2-0.5,8.8-0.5,13.8c0,10.8,0.3,21.6,0.8,32.2c0.7,15,2.3,29.7,5,43.9c2.7,14.9,6.6,22.3,11.8,22.3
		C1203.4,396.9,1206.1,395.4,1208.7,392.5z"/>
	<path class="st0" d="M1296.5,394.5c-3.5-10.4-6.1-21.2-7.8-32.2l-1.8-10.2c-4.9-28.7-8-45-9.3-49.1h-3c0,5.8-0.1,11.1-0.3,16v16.6
		c0,26.9,1.6,47.9,4.8,62.9l-2.8,8.1h-7l-3.3-4.5l0.3-20.2c0-18.1-0.8-45.5-2.3-82.2c-1.3-39.1-2-66.5-2-82.2
		c0-9.6,2.8-14.4,8.3-14.4c9.1,0,16.5,2.8,22.3,8.4c5.8,5.6,8.7,13.4,8.7,23.5v21c0,3-0.4,6.5-1.3,10.4c-0.8,3.9-1.8,7.1-2.8,9.5
		l-4.8,10.8l-4,9l1.3,7.2l3.5,21.4c2.3,15.5,4.6,28,6.8,37.6c2.2,9.6,4.9,18.4,8.1,26.2l1.5,3.6c1.7,4,2.5,7.2,2.5,9.6
		c0,2-0.5,3.8-1.5,5.3s-2.4,2.3-4,2.3C1302.9,408.9,1299.5,404.1,1296.5,394.5z M1285.1,270c2.6-9.9,3.9-19.1,3.9-27.5
		c0-6.4-0.7-12.4-2-18.1c-0.8-3.2-2.2-5.7-4.2-7.4c-1.9-1.7-4.3-2.6-7.2-2.6l-0.5,1.5l-0.5,2.7l0.5,35.5c0.3,10.4,0.5,21.8,0.5,34
		C1279.3,286,1282.5,279.9,1285.1,270z"/>
	<path class="st0" d="M1401,402.8c-1-1.3-1.8-3.6-2.3-6.8l-1.5-5.7v-0.6v-0.9c0-6.6-5.8-29.2-17.2-67.7
		c-11.5-38.5-20.5-67-27.1-85.5V387l1,2.1c0.2,0.4,0.5,1.1,1,2.1s0.8,2,0.8,3c0,2.6-0.8,4.8-2.3,6.6c-1.5,1.8-3.4,2.7-5.5,2.7
		c-5.4,0-8.1-6.1-8.1-18.4l-0.3-51.5c-0.2-15.5-0.3-32.7-0.3-51.8c0-6.4,0.3-15.8,0.8-28c0.5-12.6,0.8-22,0.8-28
		c0-9.4,3-16.9,9.1-22.3v1.8c1-0.4,1.7-0.6,2-0.6c3.9,0,8.7,8,14.6,24.1c4.7,12.8,8.9,26.4,12.7,40.6c3.8,14.3,8.8,34.5,15,60.8
		l2.5,10.8c3.9,16.3,6.8,27.9,8.8,34.9c3.4-43.1,5-94.1,5-152.9v-3.9c-0.2-1.2-0.3-2.5-0.3-3.9c0-6,2-9,6-9c2.3,0,4.2,1.1,5.4,3.3
		c1.3,2.2,1.9,5,1.9,8.4v22.6c-0.3,30.9-1.3,64.4-3,100.5s-3.7,56.5-6,61.1c-4.9,1.6-7.9,2.4-9.1,2.4
		C1403.5,404.7,1402,404.1,1401,402.8z"/>
	<path class="st0" d="M1498.4,404.4c-1.8-1.4-2.8-4-2.8-7.8c0-6-0.8-16.3-2.5-30.7l-1-6.3l-24.9-4.5c-1,4.6-2.4,13.9-4.3,28
		c-1,9.8-2.6,16.4-4.8,19.6c-1.2,1.8-2.9,2.7-5,2.7c-2,0-3.9-0.8-5.5-2.3c-1.7-1.5-2.5-3.4-2.5-5.6l0.5-1.5l0.3-1.2
		c11.1-51.6,19.5-102.4,25.2-152.6c0-0.8,0.1-2.2,0.3-4.1c0.2-1.9,0.3-4.7,0.5-8.3c0.5-7.4,1-13.3,1.6-17.8c0.6-4.4,1.5-7.7,2.9-9.9
		h8.6c2.3,0,4.4,0.7,6,2c1.7,1.3,2.5,3.2,2.5,5.6c0,15.3,1.8,37.9,5.3,68c3.4,30.9,5,52.6,5,65c0,1.2,0.4,4.3,1.3,9.3
		c0.8,4.6,1.3,7.6,1.3,9s0.8,7.4,2.5,18.1c1.5,9.6,2.3,15.9,2.3,18.7v0.3c0,4.4-1.3,7.2-4,8.4
		C1503.1,406.5,1500.3,405.8,1498.4,404.4z M1489.6,337.6c0-18.1-1.3-41.1-4-69.2l-2.5-31.3c-7.2,47.2-12.2,82.8-14.9,106.9
		c2.5,2,9.9,3.6,22.2,4.8C1489.9,345.7,1489.6,342,1489.6,337.6z"/>
	<path class="st0" d="M1534.2,366.2l0.5-47.6c0.2-14,0.3-29.8,0.3-47.3c0-6.4-0.5-16.4-1.5-29.8c-0.8-14.6-1.3-23.6-1.3-26.8
		c0-2.6,0.9-4.9,2.8-6.9c1.8-2,3.9-3,6-3c5.9,0,11.5,1.6,17,4.7c5.5,3.1,10.3,7.5,14.5,13.1c8.9,12.2,14.8,25.7,17.6,40.3
		c1.5,7.4,2.3,14.7,2.3,22c0,2.6-0.1,5-0.3,7.2l-0.3,8.1v16.6c0,12.8-0.3,23-1,30.4c-1,10-2.9,19-5.8,26.8
		c-3.4,8.4-8.2,16-14.6,22.6c-3,3-6.9,6-11.6,9h-18.1C1536.4,405.6,1534.2,392.5,1534.2,366.2z M1561.1,387.1c2.9-2.1,5.3-5,7.3-8.6
		c1.7-3.2,3.2-7.3,4.7-12.2c1.4-4.9,2.5-9.7,3.1-14.3c1.5-9,2.4-18.3,2.8-27.7c0.2-2.4,0.3-5.9,0.3-10.5c0-60.6-9.8-92.2-29.5-94.8
		c-1.2,9-1.8,19.5-1.8,31.3c0,12.6,0.7,34.7,2,66.2c1.2,27.9,1.8,50.1,1.8,66.5v7.2C1555.2,390.3,1558.3,389.2,1561.1,387.1z"/>
	<path class="st0" d="M1637.2,404.6c-3.7-3.3-6.7-7.8-9.1-13.4c-4.9-12.2-7.9-25.6-9.1-40c-1.5-13.6-2.3-26.8-2.3-39.4
		c0-2.4,0.1-4.4,0.3-6v-5.4c0-1-0.1-1.5-0.3-1.5v-5.4l0.3-21.1c0.2-6.4,0.8-16.7,2-30.7c0.8-9.6,2.8-19,5.8-28
		c1.2-4,2.7-7.1,4.5-9.2c1.8-2.1,3.9-3.2,6.3-3.2c6.7,0,12.8,1.5,18.1,4.4c5.4,2.9,9.9,7,13.6,12.2c3.4,5,6.2,11.2,8.6,18.5
		c2.3,7.3,4,15.1,5,23.3c1,8.4,1.5,17.4,1.5,26.8v2.4c0,6.2,0.1,11.8,0.3,16.9l0.3,17.2c0,57.8-11.2,86.7-33.7,86.7
		C1644.9,409.5,1640.9,407.9,1637.2,404.6z M1656.5,392.5c2.5-2.9,4.4-6.9,5.8-11.9c3.2-10.2,5.1-21.3,5.8-33.1
		c0.8-10.2,1.3-19.1,1.3-26.5c0-9-0.6-20.9-1.8-35.5c-1-15.4-1.5-27-1.5-34.6v-5.4c-0.3-7.6-2.5-14.2-6.4-19.9
		c-3.9-5.6-8.8-8.4-14.5-8.4s-9.5,3.9-11.3,11.7c-1.7,6.2-2.5,14.3-2.5,24.1c0,3.8,0.1,7,0.3,9.6v8.1l-0.5,13.8
		c-0.3,4.2-0.5,8.8-0.5,13.8c0,10.8,0.3,21.6,0.8,32.2c0.7,15,2.3,29.7,5,43.9c2.7,14.9,6.6,22.3,11.8,22.3
		C1651.3,396.9,1654,395.4,1656.5,392.5z"/>
	<path class="st0" d="M1707.3,404.1c-2.1-2-3.3-4.6-3.7-7.8l2.8-5.1c1,0,2.6,0.4,4.8,1.2c2.5,0.6,4.4,0.9,5.8,0.9
		c3,0,5.7-1.6,8.2-4.8c2.4-3.2,4.2-7.4,5.4-12.6c2.2-9.6,3.3-18.3,3.3-25.9c0-13.2-3.5-27.2-10.6-41.8l-2.8-5.7
		c-3.2-6.6-5.9-12.5-8.1-17.8c-2.2-5.2-4-10.8-5.5-16.9c-2-7.8-3-15.7-3-23.5c0-8.8,1.7-18.1,5-27.7c1.7-4.6,4.1-8.4,7.2-11.3
		c3.1-2.9,6.6-4.4,10.4-4.4c3,0,5.8,1.2,8.4,3.5s3.9,5.1,3.9,8.3c0,1.8-0.6,3.2-1.8,4.2c-1.2,1-2.6,1.5-4.3,1.5
		c-1.8,0-3.6-0.6-5.3-1.8c-3.7,0.2-6.6,4.1-8.8,11.7c-1.8,7-2.8,12.8-2.8,17.5c0,5.8,0.8,11.7,2.3,17.6s3.4,11.3,5.8,16.1l5.5,12
		l8.8,19.9c2.3,5.6,4.2,12.1,5.7,19.6c1.4,7.4,2.1,15,2.1,22.6c0,12.2-2.4,23.9-7,34.9c-2.4,5.6-5.7,10.1-9.9,13.5
		c-4.3,3.4-9,5.1-14.2,5.1v0.9C1711.9,407.4,1709.4,406.1,1707.3,404.1z"/>
</g>
<g>
	<path class="st1" d="M163.8,79.5c-49.7,18.1-94.9,46-123.6,87.3c-5.6,8-10.6,16.4-14.3,25.3c-7.3,17.2-10.3,37.3-2.4,54.2
		c7.6,16.3,24.3,27.4,42,33c17.7,5.6,36.7,6.4,55.3,7.2c-7.8,1.6-12.8,12.3-16.4,19.1c-2.9,5.6-5.3,11.7-4.4,17.9
		c1,7.3,6.5,13.4,13,17.3s14.1,5.9,21.5,7.9c-11.2,3.8-22.6,16.2-22.6,27.6s8.2,22.3,19.5,26c-9.6,2.6-15.9,12.6-16.1,22.1
		c-0.2,9.5,4.4,18.6,10.4,26.2c-4.7-1.3-9.3,3.3-10.1,7.9s1.3,9.1,3.6,13.2s5,8.2,5.5,12.8c-10.5,0.7-13.7,12.5-12,22.5
		c1.8,9.9,7.3,19.4,6.5,29.4c-0.7,9.2-6.9,17.5-14.5,23.2s-16.8,9.3-25.8,12.8c17.7-6.2,34.4-6.1,52.2-12.3
		c13.6-4.8,27.7-9.7,38.3-19.2s17-24.6,11.6-37.5c13-3.8,26.8-8.1,35.6-17.9c8.8-9.9,9.8-27.3-1.7-34.3c5.5-7.5,14.5-11.8,22.6-16.5
		c8.2-4.8,16.4-11.1,18.5-20s-5.6-19.9-14.9-18.1c17.1-11.2,33.3-23.7,48.4-37.3c5.1-4.6,5.3-12.4,0.4-17.2
		c15.3-10.3,31-20.9,41.7-35.6s15.5-34.6,7.3-50.7c0.8,1.7,42.8-30.6,46.2-33.8c36.1-34.1,84.1-116,32-157
		c-34.8-27.6-88.7-16.4-129.5-12.4C247.6,56.4,204.2,64.7,163.8,79.5z"/>
	<path class="st2" d="M26,236.7c-1-14.3,0.7-28.8,5.1-42.6c1.8,17.1,15.6,31.5,31.8,38.9c16.2,7.5,34.7,9.1,52.7,9.6
		c51.9,1.5,104.4-5.7,152.7-23.8s92.4-47.4,124.6-86.2c6.2-7.5,12.1-15.6,14.7-24.8s1.2-20-5.6-27c10.2,5,16.2,15.7,17.9,26.5
		c1.7,10.8-0.3,21.8-2.8,32.4c-5.2,22.7-12.4,45.6-27.2,64.1c-21.2,26.6-55,40.9-88.3,51.2c-59,18.3-121.1,27.5-183.1,27.3
		c-19.2-0.1-39.8-1.5-57.3-9.8C45.3,264.9,27.3,255,26,236.7z"/>
	<path class="st2" d="M294.1,307.4c5.7-2.9,11.4-6.1,15.4-10.9s5.9-11.7,3.1-17.2c6.1,2,9.1,9.1,8.2,15.3
		c-0.9,6.1-4.7,11.5-8.6,16.5c-11.7,15.1-25.4,29.9-43.8,36.5c-10.8,3.9-22.5,4.7-34,5.6c-33.1,2.3-67.2,4.6-99-4.5
		c-11-3.1-28.5-12-23.4-25.9s22.2-4.2,31.2-0.9c30.6,11.2,65.9,11,97.5,4.3C259.2,322.3,277.2,315.9,294.1,307.4z"/>
	<path class="st2" d="M174.2,405.5c13.5,0,27-1.1,40.3-3.4c10.5-1.8,21.1-4.4,30.2-9.7c9.1-5.3,16.7-13.6,18.9-23.6
		c-16.1,14.1-37.1,22.7-58.8,25.5s-43.9-0.1-64.6-6.9c-3.3-1.1-12.8-4.2-15.7-0.7c-3.6,4.5,6.7,9.4,10.7,11.4
		C147.1,404.1,161.1,405.5,174.2,405.5z"/>
	<path class="st2" d="M195.5,421.5c2.6-0.5,5.2-1,7.8-1.5c7.3-1.5,33.4-12.7,37.3-2.3c1.6,4.3-3.2,9.6-5.9,12.5
		c-7.2,7.7-17.3,12.8-27.8,15c-7.8,1.6-64.8,5.3-59-12.8c2.9-9,16.3-8.9,24.2-8.7C179.9,423.8,187.7,422.9,195.5,421.5z"/>
	<path class="st2" d="M168.5,480.5c13.2-2.1,25.4-8.3,36.3-15.7c0.9-0.6,2-1.3,3.1-1.1c1.1,0.2,1.8,1,2.4,1.9
		c4.5,6.6,3.3,15.8-1.7,22.2c-5,6.3-12.9,10-21,11.6c-13.6,2.6-28.2-0.3-39.5-7.9c-4-2.6-7.8-5.8-10.9-9.4c-3.6-4.1-5.5-6.2,0.3-5.5
		c4.9,0.6,9.9,3.7,15.1,4.4C157.8,481.4,163.2,481.3,168.5,480.5z"/>
	<path class="st2" d="M142.5,540.9c-9.3,9.6-22.8,13.8-33.2,22.2c3.9-1.4,8.2-0.6,12.2-1.5c4.3-0.9,8.5-2.2,12.6-3.8
		c7.8-3,15-7.1,21.6-12c6.5-4.8,19-13.8,14.5-23.1c-2.7-5.5-12.1-8.6-15.4-2C150.9,528,148.5,534.7,142.5,540.9z"/>
	<path class="st2" d="M335.6,71c-86.5,0.9-172.5,30-240.3,81.2c-8.2,6.2-16.3,12.9-21.9,21.3c-5.6,8.5-8.5,19-5.5,28.6
		c7.1-22.2,28.3-36.6,48.7-49.3C184.3,111,255.5,80.6,335.6,71z"/>
	<path class="st2" d="M115.6,205.2c41,1.8,82.5-5.2,120.4-20.3c-39.4,20.1-84.4,30.3-129.1,29.4c-8.7-0.2-20-1.5-24.1-10
		c-3.5-7.3,1-19.3,9.7-20.6C87.3,199,102.4,204.6,115.6,205.2z"/>
	<path class="st2" d="M374.6,98.9c-0.6,5.8-4.4,10.8-8.3,15.4c-25.6,29.7-60,52.5-98.2,65c16.3-13.5,32.6-26.9,48.9-40.4
		c7.6-6.2,15.8-14.1,14.8-23.5c-1.1-10.2-15.5-16.6-24.4-10.7c11.4-7.5,27-18.5,40-23C359.5,77.3,376,84.9,374.6,98.9z"/>
	<path class="st2" d="M167.6,140.4c20.7-11.6,42.5-21.4,65-29.3c20-7,44.5-8.7,63.3-17.1c-13.1-12.2-46.6,3.1-60.2,8.2
		C210.2,111.8,190.8,127.3,167.6,140.4z"/>
	<path class="st2" d="M127.2,178.7c-2.6,3.3-4.1,7.7-2.8,11.7c1.3,3.9,5.1,6.8,9.3,8c4.1,1.3,8.6,1.2,12.9,1
		c30.2-1.4,60.2-8.4,87.7-20.4c-19.3,2.8-38.6,5.5-57.8,8.3c-5.5,0.8-13.1,1.8-18.1-1.4c-8.3-5.3-2.8-9.5-3.9-16.3
		C152,155.1,133.3,171,127.2,178.7z"/>
	<path class="st2" d="M280.4,112.9c7.5-1.7,17.1-2.7,21.3,3.4c2.6,3.8,1.8,9.1-0.7,12.9c-2.6,3.8-6.6,6.5-10.6,9
		c-28.2,17.6-60.1,29.5-93.3,34.9c21.5-7.8,42.4-17.1,62.4-27.8c5.7-3,13.6-8.3,11.5-15.6c-1.9-6.6-10.1-6.4-14.4-10.6
		C262.5,115.5,273,114.6,280.4,112.9z"/>
	<path class="st2" d="M168.1,170c16.9-19.3,39.9-33.5,65.3-40.4c-11.9,3.1-26.6,3.9-37.9,8.5C182.4,143.6,172.1,157.2,168.1,170z"/>
	<path class="st2" d="M304,265.4c-10.5,4.5-19.8,14-30.5,19.1c-11.6,5.5-23.8,9.6-36.4,12.2c-21.2,4.5-53.5,8.2-73.5-1.8
		C212.7,291,258.5,285,304,265.4z"/>
	<path class="st2" d="M209.1,371.7c-10.9,4.6-25.1,7-39,6.6c-9.1-0.3-22.4-1.8-28.6-5.5c6.7-2.3,22.8,1,30.9,1.1
		C184.7,374.2,197.2,373.5,209.1,371.7z"/>
</g>
<g>
	<g>
		<path class="st0" d="M1240.7,532.6H505.9c-7,0-12.8-5.5-12.8-12.2s5.7-12.2,12.8-12.2h734.8c7,0,12.8,5.5,12.8,12.2
			S1247.8,532.6,1240.7,532.6z"/>
		<path class="st3" d="M1240.7,535.7H505.9c-8.8,0-15.9-6.9-15.9-15.3c0-8.4,7.2-15.3,15.9-15.3h734.8c8.8,0,15.9,6.9,15.9,15.3
			C1256.7,528.8,1249.5,535.7,1240.7,535.7z M505.9,511.2c-5.3,0-9.6,4.1-9.6,9.2s4.3,9.2,9.6,9.2h734.8c5.3,0,9.6-4.1,9.6-9.2
			s-4.3-9.2-9.6-9.2H505.9z"/>
		<path class="st3" d="M505.9,522.7c37-0.7,73.9-1.4,110.9-1.7c48.8-0.4,97.5-0.9,146.3-1c52.4-0.2,104.9-0.2,157.3-0.1
			c49.5,0.2,99.1,0.4,148.6,0.9c41.1,0.4,82.3,1,123.4,1.8c1.2,0,2.5,0.1,3.7,0.1c-37,0.7-73.9,1.4-110.9,1.7
			c-48.8,0.4-97.5,0.9-146.3,1c-52.4,0.2-104.9,0.2-157.3,0.1c-49.5-0.2-99.1-0.4-148.6-0.9c-41.1-0.4-82.3-1-123.4-1.8
			C508.4,522.7,507.2,522.7,505.9,522.7z"/>
	</g>
	<path class="st4" d="M1760.9,541.5c0.3-4.7,0.8-9.8,0.9-15.2c0-6-4.5-6-4.5-12c-0.1-5.3,4.2-10.5,4-15.2
		c-0.3-5.4-3.9-10.2-4.3-14.9c-0.5-5.4-0.5-10.4-1.2-15c-0.8-5.5-1.2-10.5-2.1-14.9c-1.2-5.8-0.1-11.4-1.4-15.4
		c-2.2-6.8-4.5-11.7-6.1-14.4c-1.3-2.3-5.9,0.4-8.6,0.9c-7.5,1.4-8.4-2.8-15.9-1.5c-7.5,1.4-7.6,0.9-15.1,2.3s-7,3.7-14.6,5.1
		c-7.5,1.4-7.2,3.1-14.7,4.4c-7.5,1.4-7.7,0.2-15.3,1.6c-7.5,1.4-8-1.1-15.5,0.3s-7.6,0.8-15.1,2.2c-7.5,1.4-7,4.1-14.5,5.5
		s-8-0.8-15.5,0.5c-7.5,1.4-7,4.2-14.5,5.6s-7.8,0.1-15.3,1.5s-7.8-0.2-15.3,1.2c-7.5,1.4-7.3,2.7-14.8,4c-7.5,1.4-7.8-0.2-15.3,1.2
		c-7.5,1.4-7.4,2.2-14.9,3.6s-7.6,0.8-15.1,2.2c-7.5,1.4-7,4.2-14.5,5.6s-7.5,1.7-15,3c-7.5,1.4-7.6,0.8-15.1,2.2
		c-7.5,1.4-8-0.8-15.5,0.6s-7.7,0.5-15.2,1.9s-7.1,3.2-14.7,4.1c-7.5,0.9-7.3,2.9-14.9,3.4c-7.5,0.5-7.7-2.1-15.3-1.6
		c-7.5,0.5-7.5,0.6-15.1,1.1c-7.5,0.5-7.5,1-15,1.5s-7.5,1.8-15,2.3s-7.6-0.1-15.1,0.4s-7.7-1.6-15.2-1.1s-7.5,1.7-15,2.2
		s-7.3,3.3-14.9,3.8c-7.5,0.5-7.8-3.2-15.4-2.7s-7.6,0.1-15.1,0.6c-7.6,0.5-7.2,4.9-14.8,5.4c-7.6,0.5-7.7-2.2-15.3-1.7
		c-5.2,0.3-8.5,5.3-8.5,11.1c0,6.4-2.9,6.4-2.9,12.9c0,6.4,1.7,6.4,1.7,12.9c0,5.7,4.4,13,9.6,13.3c7.5,0.5,7.7-1.8,15.3-1.3
		c7.5,0.5,7.5,1,15,1.5s7.8-2.7,15.3-2.2s7.5,0.8,15.1,1.3c7.5,0.5,7.3,4.2,14.8,4.7s7.5,0.8,15.1,1.3c7.5,0.5,7.7-1.1,15.2-0.6
		s7.7-2,15.3-1.5c7.5,0.5,7.4,2.6,14.9,3.1s7.5,1.6,15,2.1c7.6,0.5,7.6-0.3,15.2,0.2s7.6-0.2,15.2,0.3s7.9-2,15.4-1.1
		c7.6,0.9,6.7,6,14.3,7.4c7.5,1.4,7.6,1,15.1,2.4s8.3-2.4,15.8-1s7.5,1.5,15,2.9s6.9,4.6,14.4,6s7.8-0.1,15.3,1.3
		c7.5,1.4,7.6,0.8,15.1,2.2s7.9-0.4,15.4,1s6.9,4.6,14.4,6s7.4,2.1,14.9,3.5s7.5,1.2,15,2.6c7.5,1.4,7.8-0.1,15.3,1.3
		c7.5,1.4,7.4,1.9,14.9,3.3c7.5,1.4,7.5,1.4,15,2.8c7.5,1.4,7.7,0.4,15.2,1.7c7.5,1.4,7.5,1.6,15,3s6.9,4.3,14.5,5.6
		c7.5,1.4,7.9-0.5,15.4,0.9s8-1.1,15.5,0.3c7.5,1.4,7.3,2.6,14.8,4s7.3,2.7,14.8,4.1c7.5,1.4,7.7,0.4,15.2,1.8
		c2.7,0.5,4-1.1,5.3-3.3c1.6-2.7,6.4-6,8.7-12.8c1.3-4,2.5-9,3.7-14.8c0.9-4.4,1.9-9.4,2.7-14.9c0.7-4.6-1.6-9.9-1.1-15.3
		C1756.9,551.7,1760.6,546.9,1760.9,541.5z"/>
	<g>
		<path class="st2" d="M1756.5,478.8c-3,0.2-6.6,0.6-10.2,0.9c-8.8,0.2-17.5,0.5-17.5,0.5s8.6-1.2,17.2-2.4
			c3.6-0.7,7.3-1.4,10.3-2.1C1756.4,476.6,1756.5,477.7,1756.5,478.8z"/>
		<path class="st2" d="M1759,548.5c-0.5,1.2-1,2.3-1.4,3.5c-3.2-0.7-8.5-2-13.9-3.2c-8.5-1.6-17.1-3.2-17.1-3.2s8.7,0.6,17.5,1.2
			C1750,547.4,1755.9,548.1,1759,548.5z"/>
		<path class="st2" d="M1753.1,449.6c-1.8,0.2-3.9,0.4-6,0.6c-5.8,0.7-11.6,1.4-11.6,1.4s5.6-1.7,11.2-3.3c2.2-0.6,4.5-1.2,6.3-1.8
			C1753,447.4,1753,448.5,1753.1,449.6z"/>
		<path class="st2" d="M1761.8,525.3c-2.2-0.3-5.5-0.7-8.7-1.2c-5.8-0.5-11.5-0.9-11.5-0.9s5.8-0.6,11.6-1.1
			c2.6-0.1,5.4-0.2,7.5-0.3C1761.2,522.8,1761.6,523.8,1761.8,525.3z"/>
		<path class="st2" d="M1756.2,575.2l0.5-3.9c0,0-5.8-0.2-11.7-0.5c-5.8-0.1-11.7-0.1-11.7-0.1s5.7,1,11.4,2.1
			C1750.5,574,1756.2,575.2,1756.2,575.2z"/>
		<path class="st2" d="M1761.3,499.2c0.1,1.3-0.2,2.6-0.6,3.9l-10.6,0.6h-0.1l-13.7-0.4l-13.7,0.5l-13.8,0.2l13.7-1.2l13.6-1.5h0.1
			l13.6-0.6L1761.3,499.2z"/>
		<path class="st2" d="M1592.1,458.4L1592.1,458.4L1592.1,458.4l29-4.6l0,0h0.1c4.7-1.2,9.4-2.5,14.1-3.8l14.5-2.1l0,0l0,0l14.3-3.6
			c4.7-1.4,9.3-2.9,14-4.4c-4.8,1.1-9.5,2.2-14.3,3.4l-14.3,2.9l-14.6,2h-0.1h-0.1c-4.7,1.2-9.4,2.5-14.1,3.8l-14.4,2.5l-14.4,3l0,0
			c-4.9,0.7-9.7,1.4-14.6,2.2C1582.3,459.2,1587.2,458.8,1592.1,458.4z"/>
		<path class="st2" d="M1652.7,468.3L1652.7,468.3L1652.7,468.3c7-1,13.8-2.4,20.7-3.6l5.1-1.1c0.8-0.2,1.8-0.3,2.6-0.6l2.5-0.7
			c3.4-0.9,6.7-1.8,10-2.8c4.6-0.6,9.2-1.3,13.8-2.1c-4.7,0.2-9.3,0.4-14,0.8l0,0h-0.1c-3.4,0.7-6.8,1.5-10.2,2.3l-2.5,0.6
			c-0.9,0.2-1.6,0.3-2.5,0.5l-5.1,1c-6.8,1.5-13.7,2.7-20.5,4.3h0.1c-4.6,0.6-9.2,1.3-13.8,2
			C1643.4,468.8,1648.1,468.6,1652.7,468.3z"/>
		<path class="st2" d="M1646.6,489.5c4.3-0.4,8.8-0.8,13.3-1.2c4.5-0.5,9.1-1,13.3-1.5c2.1-0.2,4.2-0.5,6.1-0.8s3.7-0.4,5.5-0.5
			c6.8-0.5,11.4-1.1,11.4-1.1s-4.6-0.1-11.4-0.1c-1.7,0-3.6,0-5.6,0.2c-2,0.1-4,0.3-6.2,0.5c-4.3,0.4-8.8,0.8-13.3,1.2
			c-4.5,0.5-9.1,1-13.3,1.5c-4.2,0.5-8.2,1.1-11.6,1.6c-6.8,1-11.3,1.8-11.3,1.8s4.6-0.2,11.4-0.7
			C1638.4,490.2,1642.4,489.9,1646.6,489.5z"/>
		<path class="st2" d="M1611,533.8L1611,533.8L1611,533.8l8.6-0.2l8.5-0.5c1.4,0,2.8,0,4.2-0.1l4.2-0.2c2.8-0.1,5.7-0.4,8.5-0.6
			c-2.8-0.2-5.7-0.4-8.5-0.5l-4.2-0.2c-1.4-0.1-2.8-0.1-4.3-0.1l-8.5,0.2l-8.5,0.5c-2.8-0.2-5.6-0.1-8.4-0.2c-2.8-0.1-5.7,0-8.5,0.1
			c2.8,0.4,5.6,0.8,8.4,1.1C1605.3,533.3,1608.2,533.6,1611,533.8z"/>
		<path class="st2" d="M1687.9,562.4c-4.8-0.6-9.7-1-14.5-1.4c-4.8-0.8-9.6-1.5-14.4-2.1l-7.2-1.2l-7.2-1.1h-0.1l0,0
			c-4.9-0.3-9.7-0.4-14.6-0.5c4.8,0.7,9.6,1.3,14.5,1.8l7.1,1.5l7.2,1.4c4.8,0.8,9.6,1.5,14.4,2.1l0,0l0,0c4.9,0.3,9.7,0.7,14.6,0.9
			c4.7,1,9.5,2,14.3,2.8c-4.7-1.5-9.3-2.8-14.1-4.1L1687.9,562.4L1687.9,562.4z"/>
		<path class="st2" d="M1670.2,581.4l2.9,0.7c0.9,0.3,2.1,0.4,3,0.6l5.9,1.1l5.9,1.1c1,0.2,1.9,0.3,2.9,0.6l2.9,0.7l11.7,2.7l0,0
			l0,0c5.3,0.9,10.6,1.5,15.8,2.3l0,0l0,0c5.3,0.4,10.7,0.6,16.1,0.9c-5.3-0.7-10.6-1.4-15.9-2c-5.2-1-10.4-2-15.7-2.8l-11.6-2.8
			l-2.9-0.7c-1-0.3-2.1-0.4-3-0.6l-5.9-1l-5.9-1c-1-0.2-1.9-0.3-2.9-0.6l-2.9-0.7l-11.7-2.6h-0.1l0,0c-5.3-0.3-10.7-0.5-16.1-0.7
			c5.3,0.7,10.6,1.3,15.9,1.9L1670.2,581.4z"/>
		<path class="st2" d="M1565.6,564l7,1.6l7,1.7c2.3,0.5,4.7,1.2,7,1.6h0.1c4.8,0.6,9.6,1.2,14.4,1.6c-4.7-1.2-9.4-2.1-14.1-3.1
			c-2.3-0.7-4.6-1.3-7-1.9l-7-1.9l-7.1-1.4c-2.4-0.5-4.7-1-7.1-1.4h-0.1c-4.8-0.5-9.6-1-14.4-1.2c4.7,1.1,9.4,1.9,14.2,2.8h-0.1
			C1560.9,563,1563.3,563.5,1565.6,564z"/>
		<path class="st2" d="M1752.4,439.7l-0.6,0.1h-0.3l-15.9-1l-14.9,2.8l-14.5,5.8l-0.2,0.1h-0.1l-15.2,3l-15,3.8l-14.7,5.3l-0.4,0.1
			l-0.3-0.1l-16.4-3.1l-15,2.5l-13.8,9.2l-0.2,0.2h-0.3l-15.8-0.3l-14.8,4.6l0,0h-0.1l-15.4,2.3l-14.7,5.5h-0.1l-15.7,0.9h-0.1
			l-16.2-1.6l-15.1,4.1l15-4.3l0,0l16.3,1.3l15.7-1.1l14.6-5.7l0,0h0.1l15.3-2.5l14.9-4.9l0.1-0.1h0.1h15.7l13.6-9.3l0.2-0.1h0.2
			l15.3-2.8h0.2h0.2l16.3,2.8l14.4-5.4h0.1h0.1l15-4l15.1-3.2l14.5-6l0.2-0.1h0.2l15.3-3.1l0.2-0.1h0.3l15.6,0.7
			c0.4,1,0.7,2,1.1,3.1C1752.3,439.3,1752.4,439.5,1752.4,439.7z"/>
		<path class="st2" d="M1755.6,467.8L1755.6,467.8l-10.2,1.3l-15.2,2.2h-0.1h-0.1l-15.4,0.2l-15,3l-15.2,2.6h-0.1h-0.1l-15.5,0.6
			l-15.4-0.2l-14.9,4.5h-0.1h-0.1l-15.5,0.5l0,0l-15.7-1.2l-15.3,1.7l15.3-2.1l0,0l15.7,0.9l15.4-0.8l14.8-4.8h0.1h0.1l15.5-0.1
			l15.3-0.9l15.1-2.9l15-3.3h0.3l15.4-0.5l15.1-2.5l10.2-1.5C1755.3,465.7,1755.4,466.7,1755.6,467.8z"/>
		<path class="st2" d="M1749.3,605.5c-0.8,1.3-1.6,2.5-2.5,3.5l-10.8-1.5h-0.1h-0.1l-14.8-3.4l-14.8-2.8l-15-1.7l-0.5-0.1l-0.4-0.2
			l-12.9-9.5l-15.6,4.8l-0.6,0.2l-0.6-0.3l-13.6-7.3l-15.4,2.4l-0.5,0.1l-0.4-0.2l-13.6-8.5l-14.4-4.2l-14.4-2.8l-15.8,3.3h-0.2
			h-0.2l-14.8-3.1h-0.1h-0.1l-14-6.6l-15.5,1.6h-0.2l-0.2-0.1l-13.9-7.3l-15.4,0.6l-15.6,0.8h-0.1l-15-2.3l-15-2h-0.1l-14.3-5.6
			l-15.3-0.5l-15.3-1.2l15.3,1.1l15.3,0.3h0.1l14.4,5.5l15,1.8l15,2.1l15.5-1l15.6-0.8h0.2l0.2,0.1l13.9,7.1l15.5-1.8h0.2l0.2,0.1
			l14.1,6.5l14.6,2.9l15.8-3.5h0.2h0.2l15,2.5h0.1h0.1l14.7,4.1h0.2l0.1,0.1l13.5,8.2l15.4-2.6l0.4-0.1l0.4,0.2l13.5,7.1l15.7-5.1
			l0.8-0.3l0.6,0.5l13.3,9.6l14.7,1.5h0.1h0.1l15,2.7l14.7,3.2L1749.3,605.5z"/>
		<path class="st2" d="M1755.6,582.8c-0.2,1.3-0.5,2.5-0.7,3.6l-2.7-0.5l-5.6-1.1c-0.9-0.2-1.9-0.4-2.8-0.6l-2.8-0.6l-11-2.5
			l-14.7-2.4l-15.5,1.3h-0.4l-0.4-0.2l-14.2-5.8l-14.3-5.1l-14.6-3.2l-15.1-1.1l-15.2-1.6h-0.1h-0.1l-14.2-5.1l-15.6,1.9h-0.1
			l-15.4-0.5h-0.1l-14.8-3.1h-0.1h-0.1l-13.9-7.8l-14.4-4.6l-15.1-1.5l-16.2,3.6h-0.1l-13.8-8.1l13.9,7.9l16.1-3.9h0.1l15.2,1.3h0.1
			l14.6,4.4h0.1l0,0l13.9,7.6l14.7,2.9l15.2,0.3l15.7-2.1h0.2l0.2,0.1l14.4,4.9l15,1.4l15.2,0.9h0.1h0.1l14.9,3.1h0.1h0.1l14.6,5
			l14,5.4l15.3-1.5h0.2l0.2,0.1l15,2.2h0.1l11.1,2.4l2.8,0.6c0.9,0.2,1.8,0.4,2.7,0.6l5.6,1L1755.6,582.8z"/>
		<polygon class="st2" points="1600.8,501.9 1600.7,501.9 1600.6,501.9 1570.5,506.5 1570.4,506.5 1570.4,506.5 1555.6,510.2 
			1540.6,512.8 1525.5,514.8 1540.7,513.4 1555.8,511.5 1555.8,511.4 1555.9,511.4 1570.8,508.1 1585.8,506.2 1600.8,504.1 
			1616.1,504.9 1616.2,504.9 1616.4,504.8 1631.3,502.1 1646.5,501.7 1646.5,501.7 1646.6,501.6 1661.7,499.4 1676.5,496.5 
			1691.9,498.8 1692.2,498.8 1692.5,498.7 1706.9,492.1 1721.8,489.3 1737.1,488.8 1721.7,488.6 1721.7,488.6 1721.7,488.6 
			1706.6,490.9 1706.5,490.9 1706.4,490.9 1692,497 1676.7,494.5 1676.5,494.4 1676.3,494.5 1661.3,497.3 1646.3,499.3 
			1631.1,499.7 1631,499.7 1630.9,499.7 1616,502.5 		"/>
		<path class="st2" d="M1704.9,558.5L1704.9,558.5c10.7,1.3,21.4,2.5,32.1,3.5c-10.5-2-21.1-3.7-31.7-5.3
			c-5.1-1.9-10.2-3.6-15.4-5.3h-0.1h-0.1l-12-1.3c-4-0.5-8-0.8-12.1-1.2l-6-0.5c-1-0.1-2.1-0.2-3.1-0.2l-3-0.2c-4-0.2-8-0.5-12-0.7
			l-15.5-4.5h-0.1l0,0c-5.4-0.4-10.7-0.9-16.1-1.3c5.3,0.9,10.6,1.6,15.8,2.5l15.4,5.2h0.1h0.1c4,0.4,8,0.7,12.1,0.9l3,0.2
			c1,0.1,1.9,0.2,3,0.3l6,0.6l23.9,2.4c5.1,1.7,10.2,3.4,15.4,5L1704.9,558.5z"/>
		<path class="st2" d="M1603.8,522.9L1603.8,522.9L1603.8,522.9l15.7,0.5l0,0h0.1l15.6-0.9h0.1h0.1l15.2-2.9
			c5.2,0.5,10.4,1,15.5,1.4h0.1h0.1l15.5-1.5h0.1h0.1l15.2-4.2l15.3-1.8c5.2,0.7,10.5,1.5,15.7,2.2h0.1h0.1l15.4-3.1l-15.4,2.2
			c-5.2-1-10.5-1.9-15.7-2.8h-0.1h-0.1l-15.5,1.3h-0.1h-0.1l-15.2,4l-15.3,1.3c-5.2-0.5-10.4-1-15.6-1.4h-0.2h-0.2l-15.3,3.1
			l-15.4,1.1H1604c-5.2-0.5-10.5-1-15.7-1.5h-0.1h-0.1l-15.1,5.4l15.3-4.5C1593.4,521.6,1598.6,522.2,1603.8,522.9z"/>
		<path class="st2" d="M1761.5,533.2c-0.1,1.3-0.2,2.6-0.3,3.8l-10.7,1h-0.3l-0.2-0.1l-16.2-2.9l-16.4,0.8h-0.2l-16.4-2l-16.4,0.6
			l-16.5,0.4l16.5-1l16.4-1.3h0.1h0.1l16.4,1.3l16.4-1.4h0.1h0.2l16.2,2.2L1761.5,533.2z"/>
		<path class="st2" d="M1252.7,507.1L1252.7,507.1L1252.7,507.1l15-2.7l15-0.6h0.1h0.1l14.8-2.5l15.1,3.1h0.2h0.2l14.9-2l15.1,0.4
			h0.1h0.1l15-2.8c5-1,9.9-2.1,14.9-3.2l15.2,1.1l-15.2-1.8l0,0h-0.1c-5,0.8-10,1.8-15,2.7l-15,2.4l-15.1-0.6h-0.1h-0.1l-14.9,1.9
			l-15.1-3.1h-0.2h-0.2l-14.9,2.6l-15,0.8h-0.1h-0.1l-14.9,3c-5,0.3-10,0.6-15,0.9l-15,1.4l15.1-0.7
			C1242.7,507.4,1247.7,507.2,1252.7,507.1z"/>
		<path class="st2" d="M1341.8,537.4l-14.8-0.5l-14.6-2.5l0,0l0,0l-14.7-1.3l-14.7-1.4h-0.1h-0.1l-14.8,1.4l-14.7-1.3h-0.1h-0.1
			l-14.8,1.2h-7.4l-7.4,0.1l-14.7-2.5l14.6,3.2l0,0l0,0l7.4,0.2l7.5,0.2l14.7-0.7l14.7,1.4h0.1h0.1l14.8-1.3l14.7,1.4l14.7,1.1
			l14.7,2.3h0.1h0.1l14.8,0.1c4.9,0.2,9.9,0.3,14.8,0.4l0,0l0,0l14.9-1.8l-14.9,1.1C1351.7,538,1346.7,537.7,1341.8,537.4z"/>
		<path class="st2" d="M1367.1,508.1L1367.1,508.1l-15.3,3.6l-15.3-0.2l-15.4,0.8l-15.5-1.3h-0.2l-0.2,0.1l-15,5.3l-15.4-2.6h-0.1
			h-0.1l-15.3,2l-15.4,0.5l15.5,0.1l0,0l0,0l15.3-1.5l15.5,2.9h0.2l0.2-0.1l15.1-5l15.3,1.4h0.1h0.1l15.4-0.6l15.5,0.3h0.1h0.1
			l15.2-3.7c10.2-0.3,20.5-0.5,30.7-0.6l15.5,2.1h0.1h0.1l15.4-1.5l0,0l0,0l15.3-2.9l15.5,0.1l-15.5-0.6l0,0l0,0l-15.4,2.4
			l-15.3,1.2l-15.5-2.4h-0.1h-0.1c-10.3,0-20.6,0.2-30.9,0.4L1367.1,508.1z"/>
		<path class="st2" d="M1459.8,521.6L1459.8,521.6c-5,0.3-10,0.6-14.9,0.9l-14.9-0.3l0,0h-0.1l-14.8,1.3l-14.8-1l-14.9-1.7h-0.2
			h-0.2l-14.6,3.4l-14.7-2h-0.2h-0.2l-14.6,3.9l-14.8-4l-0.2-0.1l-0.2,0.1c-4.9,1.6-9.7,3.3-14.6,5.1l-14.9-3.8l14.9,4.5h0.1h0.1
			c4.9-1.5,9.8-3,14.7-4.5l14.7,4.3l0.2,0.1l0.2-0.1l14.6-3.7l14.7,2.1h0.2h0.2l14.6-3.3l14.7,1.6l15,0.9h0.1h0.1l14.8-1.6h14.8l0,0
			l0,0c4.9-0.4,9.9-0.9,14.8-1.4l15,2.3L1459.8,521.6L1459.8,521.6z"/>
		<path class="st2" d="M1443.8,492.7L1443.8,492.7h0.2l15.6-4l15.7-3.4l0,0l0,0c5.2-1.5,10.3-3.1,15.4-4.7c5.4-0.4,10.8-1,16.1-1.6
			c-5.4,0.1-10.9,0.2-16.3,0.4h-0.1h-0.1c-5.2,1.4-10.4,2.6-15.6,4.1l-15.9,3.2l-15.5,4.2c-5.4,0.5-10.7,1.1-16.1,1.6h-0.1h-0.1
			c-5.1,1.8-10.2,3.8-15.3,5.7c5.2-1.5,10.5-3,15.6-4.6C1433,493.4,1438.4,493.2,1443.8,492.7z"/>
		<path class="st2" d="M1497,504.5L1497,504.5h0.2l14-3.6c4.8-0.7,9.5-1.5,14.2-2.3l14.5-1.4h0.1h0.1l13.7-5
			c4.9-0.3,9.7-0.7,14.6-1.1c-4.9,0-9.8,0-14.7,0h-0.1h-0.1l-13.9,4.4l-14.5,1.1l0,0l0,0c-4.8,0.7-9.6,1.5-14.3,2.3h-0.1l0,0
			l-14,3.8l-14.4,1.5h-0.1l0,0c-4.7,1.2-9.4,2.3-14.1,3.6c4.8-0.8,9.5-1.7,14.3-2.5L1497,504.5z"/>
		<path class="st2" d="M1521.9,532.2L1521.9,532.2h0.2l15.4,0.8l15.1,3l0,0l0,0c5.1,0.7,10.2,1.2,15.3,1.8c5.1,0.6,10.3,1,15.4,1.5
			c-5.1-0.9-10.1-1.8-15.2-2.6s-10.1-1.6-15.2-2.3l-15.1-3.2h-0.1h-0.1l-15.4-0.6c-4.9-1.3-9.9-2.4-14.9-3.6l0,0l0,0
			c-5.1-0.8-10.2-1.5-15.3-2.2c5,1.2,10,2.3,15,3.3l0,0C1512,529.4,1516.9,530.9,1521.9,532.2z"/>
		<path class="st2" d="M1425.3,540.7L1425.3,540.7h0.2c5.5,0,11,0,16.5-0.2c5.4,0.7,10.8,1.4,16.3,1.9s10.9,0.9,16.4,1.3
			c-5.4-0.9-10.8-1.8-16.2-2.5c-5.4-0.9-10.8-1.7-16.3-2.5h-0.1h-0.1c-5.5,0-11,0-16.5,0.2c-5.4-1.1-10.7-2.1-16.1-3h-0.1l0,0
			c-5.5-0.4-10.9-0.8-16.4-1c5.4,0.9,10.8,1.6,16.2,2.3C1414.6,538.4,1419.9,539.6,1425.3,540.7z"/>
	</g>
	<g>
		<path class="st3" d="M1303.9,485.2c-4.3,0-7.8,3.3-7.8,7.5v55.5c0,4.1,3.5,7.5,7.8,7.5s7.8-3.3,7.8-7.5v-55.5
			C1311.7,488.5,1308.2,485.2,1303.9,485.2z"/>
		<path class="st0" d="M1302.3,490.1c1.6,20,1.6,40.6,0,60.6C1300.7,530.7,1300.7,510.1,1302.3,490.1z"/>
	</g>
	<g>
		<path class="st3" d="M1380.7,477.9c-4.3,0-7.8,3.3-7.8,7.5v70c0,4.1,3.5,7.5,7.8,7.5s7.8-3.3,7.8-7.5v-70
			C1388.4,481.3,1385,477.9,1380.7,477.9z"/>
		<path class="st0" d="M1379.1,482.8c1.6,24.9,1.6,50.2,0,75.1C1377.5,533,1377.5,507.7,1379.1,482.8z"/>
	</g>
</g>
</svg>
