<?xml version="1.0" encoding="utf-8"?>
<!-- Generator: Adobe Illustrator 23.0.3, SVG Export Plug-In . SVG Version: 6.00 Build 0)  -->
<svg version="1.1" id="Layer_1" xmlns="http://www.w3.org/2000/svg" xmlns:xlink="http://www.w3.org/1999/xlink" x="0px" y="0px"
	 viewBox="0 0 122.9 61.8" style="enable-background:new 0 0 122.9 61.8;" xml:space="preserve">
<style type="text/css">
	.st0{fill:#FFFFFF;}
</style>
<title>peoples-group</title>
<path class="st0" d="M16.2,38.7c-0.9-1.4-2.5-3.3-2.5-5c0-1.1,0.7-2.1,1.8-2.4c-0.1-1.4-0.1-2.8-0.1-4.2c0-0.8,0-1.7,0.1-2.5
	c0-0.5,0.1-1,0.3-1.5c0.6-2.1,2.1-3.9,3.9-5c0.7-0.4,1.4-0.7,2.1-1c1.4-0.5,0.7-2.8,2.2-2.8c3.5-0.1,9.2,3.1,11.4,5.5
	c1.4,1.6,2.2,3.6,2.3,5.7l-0.1,6.1c0.7,0.1,1.2,0.6,1.5,1.3c0.5,1.9-1.5,4.3-2.4,5.8s-4.1,6-4.1,6c0,0.3,0.1,0.5,0.3,0.7
	c1.2,1.5,2.8,2.6,4.6,3.3c6.1-2.7,14-3.1,17.8-8.2c0.3-0.5,0.5-0.7,0.5-0.9s-4.9-7-5.3-7.7c-1.2-1.8-3.3-4.3-3.3-6.4
	c0.1-1.4,1-2.7,2.3-3.1c-0.1-1.8-0.2-3.6-0.2-5.5c0-1.1,0-2.2,0.1-3.2c0.1-0.7,0.2-1.3,0.4-2c0.8-2.7,2.7-5,5.1-6.5
	c0.9-0.5,1.8-1,2.8-1.3C59.1,3,58.3,0,60.2,0c4.5-0.1,12,4,14.8,7.2c1.9,2,2.9,4.7,3,7.4l-0.2,7.9c0.9,0.2,1.6,0.8,1.9,1.6
	c0.6,2.5-2,5.6-3.2,7.6s-5.3,7.8-5.4,7.8c0,0.3,0.2,0.7,0.4,0.9c3.2,4.4,9.4,5.3,15,7.2c3.5-1.2,6.6-1.8,6.8-3.9l0.2-1.8
	c-6.7-0.1-12.2-0.4-12.4-0.9c6.4-3.6,5.5-9.8,6.4-15.3c0.7-3.7,2.2-7.1,7.4-9c6.4-2.4,14.8,0.8,15.7,9.4c0,5.8,2.4,12.7,7.4,15
	c-0.1,0.3-6,0.6-13,0.8c0,0.6,0.1,1.1,0.3,1.7c1.1,3.4,10.7,3.4,14.9,9c1.9,2.6,2.7,2.2,2.7,8.5c0,0.4-0.2,0.7-0.6,0.8H0
	C0,48,14.9,52.4,20,45.4c0.2-0.2,0.3-0.5,0.4-0.7C20.4,44.6,16.6,39.3,16.2,38.7L16.2,38.7z"/>
</svg>
