<?xml version="1.0" encoding="utf-8"?>
<!-- Generator: Adobe Illustrator 23.0.3, SVG Export Plug-In . SVG Version: 6.00 Build 0)  -->
<svg version="1.1" id="Calque_1" xmlns="http://www.w3.org/2000/svg" xmlns:xlink="http://www.w3.org/1999/xlink" x="0px" y="0px"
	 viewBox="0 0 423.8 552.4" style="enable-background:new 0 0 423.8 552.4;" xml:space="preserve">
<style type="text/css">
	.st0{fill:#FFFFFF;}
</style>
<path class="st0" d="M70.6,10.2c0.5,1.8,0.9,3.6,1.2,5.5H17.1v47.8c-2.3-0.2-4.5-0.6-6.6-1.1c-1.3-0.3-2.6-0.6-3.8-1l0.1,423.7
	c1.2-0.4,2.5-0.7,3.8-1c2.1-0.4,4.1-0.8,6.3-1v47.7h54.9c-0.3,2-0.7,3.9-1.2,5.8c-0.3,1.1-0.7,2.2-1.2,3.3h284.1
	c-0.4-1.1-0.8-2.2-1.1-3.3c-0.5-1.8-0.9-3.6-1.2-5.5h54.7v-47.8c2.3,0.2,4.5,0.6,6.6,1.1c1.3,0.3,2.6,0.6,3.8,1l-0.1-423.7
	c-1.2,0.4-2.5,0.7-3.8,1c-2,0.4-4.1,0.8-6.3,1V16h-54.9c0.3-2,0.7-3.9,1.2-5.8c0.3-1.1,0.7-2.2,1.2-3.3H69.5
	C69.9,8,70.3,9.1,70.6,10.2z M160.4,24h17.4l-6.8,5.9h-17.4L160.4,24z M148.2,29.9H74.9c0.4-1.9,0.7-3.9,0.9-5.9H155L148.2,29.9z
	 M26.6,24h33c-1.7,15.2-15.6,27.3-33,28.9V24z M26.6,61.1C49.3,59.6,67.4,43.7,69.1,24H72C70.2,45.1,50.8,62,26.6,63.6V61.1z
	 M74,33.2h70.5l-13.3,11.6H68.3C70.7,41.2,72.7,37.3,74,33.2z M52.2,59.3v54.2l-13.3,11.6V64.9C43.7,63.6,48.1,61.7,52.2,59.3z
	 M26.6,135.9V66.9c2.9-0.2,5.8-0.5,8.5-1.1v62.6L26.6,135.9z M35.1,133.1v15.2l-8.5,7.4v-15.2L35.1,133.1z M10.4,65.8
	c2.2,0.5,4.4,0.8,6.6,1L16.8,382l-0.3,0.2l0.3,0.2v97.3c-2.1,0.2-4.2,0.5-6.3,0.9L10.4,65.8z M26.3,405.9v-15.2l6.8,5.9v15.2
	L26.3,405.9z M33.1,416.5v63.9c-2.2-0.4-4.5-0.6-6.8-0.8v-69L33.1,416.5z M36.9,419.8l13.3,11.6v54.8c-4.1-2.2-8.6-3.9-13.3-5V419.8
	z M26.3,522.5v-28.8c17.4,1.5,31.4,13.6,33.2,28.8H26.3z M69,522.5c-1.8-19.8-20-35.6-42.7-37.1v-2.5c24.3,1.6,43.7,18.5,45.5,39.6
	H69z M66.9,500.2h62.2l13.3,11.6H73.3C71.8,507.6,69.6,503.7,66.9,500.2z M75.6,522.5c-0.2-2.5-0.6-5-1.3-7.4h71.9l8.5,7.4H75.6z
	 M160.1,522.5l-8.5-7.4H169l8.5,7.4H160.1z M235.1,531.1l0.3,0.2l0.3-0.2h111.7c0.2,1.9,0.6,3.7,1.1,5.5h-274
	c0.5-1.9,0.9-3.8,1.2-5.8L235.1,531.1z M262.5,522.8h-17.4l6.8-5.9h17.4L262.5,522.8z M274.6,516.9H348c-0.4,1.9-0.7,3.9-0.9,5.9
	h-79.2L274.6,516.9z M396.3,522.8h-33c1.7-15.2,15.6-27.3,33-28.9V522.8z M396.3,485.6c-22.7,1.6-40.8,17.4-42.6,37.2h-2.9
	c1.8-21.1,21.2-38.1,45.4-39.7V485.6z M348.9,513.6h-70.5l13.3-11.6h62.9C352.2,505.6,350.2,509.5,348.9,513.6z M370.7,487.5v-54.2
	l13.3-11.6v60.2C379.2,483.2,374.8,485.1,370.7,487.5z M396.3,410.9v68.9c-2.9,0.2-5.8,0.5-8.5,1.1v-62.6L396.3,410.9z M387.8,413.7
	v-15.2l8.5-7.4v15.2L387.8,413.7z M412.4,481c-2.2-0.5-4.4-0.8-6.6-1l0.3-315.2l0.3-0.2l-0.3-0.2V67c2.1-0.2,4.2-0.5,6.3-0.9
	L412.4,481z M396.6,140.9V156l-6.8-5.9V135L396.6,140.9z M389.8,130.3V66.4c2.2,0.4,4.5,0.6,6.8,0.8v69L389.8,130.3z M386,127
	l-13.3-11.6V60.6c4.1,2.2,8.6,3.9,13.3,5V127z M396.6,24.3v28.8c-17.4-1.5-31.4-13.6-33.2-28.8H396.6z M353.9,24.3
	c1.8,19.8,20,35.6,42.7,37.1v2.5c-24.3-1.6-43.7-18.5-45.5-39.6H353.9z M356,46.6h-62.2L280.5,35h69.1
	C351.1,39.2,353.3,43.1,356,46.6z M347.3,24.3c0.2,2.5,0.6,5,1.3,7.4h-71.9l-8.5-7.4H347.3z M262.8,24.3l8.5,7.4h-17.4l-8.5-7.4
	H262.8z M240,24.3L252.3,35h22.8l17.1,14.9h66.6c2.9,3.2,6.3,6,10.1,8.4v58.4l17.1,14.9v19.8l10.6,9.2l-0.3,225.7L384,397.1V417
	l-17.1,14.9v58c-3.7,2.5-6.9,5.5-9.7,8.8h-67l-17.1,14.9h-22.8l-10.6,9.2l-56.8-0.3l-12.3-10.8h-22.8l-17.1-14.9H64.1
	c-2.9-3.2-6.3-6-10.1-8.4V430l-17.1-14.9v-19.8l-10.6-9.2l0.3-225.7l12.3-10.7v-19.8L56,114.9v-58c3.7-2.5,6.9-5.5,9.7-8.8h67
	l17.1-14.9h22.8l10.6-9.2L240,24.3z M348.6,10.2c-0.5,1.9-0.9,3.8-1.2,5.8l-159.6-0.3l-0.3-0.2l-0.3,0.2H75.6
	c-0.2-1.9-0.6-3.7-1.1-5.5H348.6z"/>
</svg>
