<?xml version="1.0" ?><svg viewBox="0 0 60 60" xmlns="http://www.w3.org/2000/svg"><title/><g id="text"><text font-family="MyriadPro-Regular, Myriad Pro" font-size="9" transform="translate(12.06201 -49.60986)"><tspan letter-spacing="0.00798em"/><tspan x="5.88574" y="0"/><tspan letter-spacing="-0.00798em" x="10.22363" y="0"/><tspan x="13.09473" y="0"/><tspan letter-spacing="-0.007em" x="18.12549" y="0"/><tspan x="23.00342" y="0"/></text></g><g data-name="Layer 1" id="Layer_1"><path d="M30,0a9.99969,9.99969,0,0,0-1,19.94928V59a1,1,0,0,0,2,0V19.94928A9.99969,9.99969,0,0,0,30,0Zm0,18a8,8,0,1,1,8-8A8.00917,8.00917,0,0,1,30,18Z"/><path d="M50,20a9.99969,9.99969,0,0,0-1,19.94928V59a1,1,0,0,0,2,0V39.94928A9.99969,9.99969,0,0,0,50,20Zm0,18a8,8,0,1,1,8-8A8.00917,8.00917,0,0,1,50,38Z"/><path d="M10,16A9.99969,9.99969,0,0,0,9,35.94928V59a1,1,0,0,0,2,0V35.94928A9.99969,9.99969,0,0,0,10,16Zm0,18a8,8,0,1,1,8-8A8.00917,8.00917,0,0,1,10,34Z"/><path d="M30,4a6,6,0,1,0,6,6A6.00656,6.00656,0,0,0,30,4Zm0,10a4,4,0,1,1,4-4A4.004,4.004,0,0,1,30,14Z"/><path d="M50,24a6,6,0,1,0,6,6A6.00656,6.00656,0,0,0,50,24Zm0,10a4,4,0,1,1,4-4A4.004,4.004,0,0,1,50,34Z"/><path d="M10,20a6,6,0,1,0,6,6A6.00656,6.00656,0,0,0,10,20Zm0,10a4,4,0,1,1,4-4A4.004,4.004,0,0,1,10,30Z"/></g></svg>