<?xml version="1.0" encoding="utf-8"?>
<!-- Generator: Adobe Illustrator 23.0.3, SVG Export Plug-In . SVG Version: 6.00 Build 0)  -->
<svg version="1.1" id="Layer_1" xmlns="http://www.w3.org/2000/svg" xmlns:xlink="http://www.w3.org/1999/xlink" x="0px" y="0px"
	 viewBox="0 0 24 24" style="enable-background:new 0 0 24 24;" xml:space="preserve">
<style type="text/css">
	.st0{fill:none;stroke:#FFFFFF;stroke-miterlimit:10;}
</style>
<g>
	<circle class="st0" cx="12" cy="19" r="4.5"/>
	<path class="st0" d="M12,21.5c-1.4,0-2.5-1.1-2.5-2.5"/>
	<path class="st0" d="M15.7,16.4c0,0,1.8-0.9,1.8-3.4s-1-2.5-1-4.5c0-4,6.5-2.5,6-8c0,0,1,1.5,1,2.5s0,1-0.5,2c0,0,0.5,0.5,0.5,2
		S22,9.5,22,9.5s0.5,2-1.5,3C20.5,12.5,20.7,14.4,15.7,16.4z"/>
	<path class="st0" d="M8.3,16.4c0,0-1.8-0.9-1.8-3.4s1-2.5,1-4.5c0-4-6.5-2.5-6-8c0,0-1,1.5-1,2.5s0,1,0.5,2c0,0-0.5,0.5-0.5,2
		S2,9.5,2,9.5s-0.5,2,1.5,3C3.5,12.5,3.3,14.4,8.3,16.4z"/>
</g>
</svg>
