<?xml version="1.0" encoding="utf-8"?>
<!-- Generator: Adobe Illustrator 23.0.3, SVG Export Plug-In . SVG Version: 6.00 Build 0)  -->
<svg version="1.1" id="Calque_1" xmlns:sketch="http://www.bohemiancoding.com/sketch/ns"
	 xmlns="http://www.w3.org/2000/svg" xmlns:xlink="http://www.w3.org/1999/xlink" x="0px" y="0px" viewBox="0 0 26.3 26.3"
	 style="enable-background:new 0 0 26.3 26.3;" xml:space="preserve">
<style type="text/css">
	.st0{fill-rule:evenodd;clip-rule:evenodd;fill:#FFFFFF;}
</style>
<title></title>
<desc></desc>
<g id="Page-1">
	<g id="icon-11-baseball-set">
		<path id="baseball-set" class="st0" d="M10.8,13.6l-7.3,8.3l0,0l0.9,0.9l8.3-7.3L10.8,13.6L10.8,13.6L10.8,13.6z M11.5,12.8
			l9.7-11c0.9-1,2.3-1,3.2-0.1l0.2,0.2c0.9,0.9,0.9,2.4-0.1,3.2l-11,9.7L11.5,12.8L11.5,12.8L11.5,12.8z M2.9,22.6l-0.7,0.8l0,0
			L1.8,23c-0.2-0.2-0.5-0.2-0.7,0c-0.2,0.2-0.2,0.5,0,0.7l1.4,1.4c0.2,0.2,0.5,0.2,0.7,0c0.2-0.2,0.2-0.5,0-0.7l-0.4-0.4l0.8-0.7
			L2.9,22.6L2.9,22.6L2.9,22.6z M2.1,22L20.5,1.1c1.2-1.4,3.2-1.4,4.5-0.1l0.3,0.3c1.3,1.3,1.2,3.3-0.1,4.5L4.3,24.2
			c0.2,0.5,0.1,1.2-0.3,1.7c-0.6,0.6-1.5,0.6-2.1,0l-1.4-1.4c-0.6-0.6-0.6-1.5,0-2.1C0.9,21.8,1.5,21.7,2.1,22L2.1,22L2.1,22z"/>
	</g>
</g>
</svg>
