<?xml version="1.0" encoding="utf-8"?>
<!-- Generator: Adobe Illustrator 23.0.3, SVG Export Plug-In . SVG Version: 6.00 Build 0)  -->
<svg version="1.1" id="Calque_1" xmlns="http://www.w3.org/2000/svg" xmlns:xlink="http://www.w3.org/1999/xlink" x="0px" y="0px"
	 viewBox="0 0 60 60" style="enable-background:new 0 0 60 60;" xml:space="preserve">
<style type="text/css">
	.st0{fill:#FFFFFF;}
</style>
<title></title>
<g id="text">
</g>
<g id="Layer_1">
	<path class="st0" d="M30,0c-5.5,0-10,4.5-10,10c0,5.1,3.9,9.4,9,9.9V59c0,0.6,0.4,1,1,1s1-0.4,1-1V19.9c5.5-0.6,9.5-5.5,8.9-10.9
		C39.4,3.9,35.1,0,30,0z M30,18c-4.4,0-8-3.6-8-8s3.6-8,8-8s8,3.6,8,8C38,14.4,34.4,18,30,18z"/>
	<path class="st0" d="M50,20c-5.5,0-10,4.5-10,10c0,5.1,3.9,9.4,9,9.9V59c0,0.6,0.4,1,1,1s1-0.4,1-1V39.9c5.5-0.6,9.5-5.5,8.9-10.9
		C59.4,23.9,55.1,20,50,20z M50,38c-4.4,0-8-3.6-8-8s3.6-8,8-8s8,3.6,8,8C58,34.4,54.4,38,50,38z"/>
	<path class="st0" d="M10,16C4.5,16,0,20.5,0,26c0,5.1,3.9,9.4,9,9.9V59c0,0.6,0.4,1,1,1s1-0.4,1-1V35.9c5.5-0.6,9.5-5.5,8.9-10.9
		C19.4,19.9,15.1,16,10,16z M10,34c-4.4,0-8-3.6-8-8s3.6-8,8-8s8,3.6,8,8C18,30.4,14.4,34,10,34z"/>
	<path class="st0" d="M30,4c-3.3,0-6,2.7-6,6s2.7,6,6,6s6-2.7,6-6C36,6.7,33.3,4,30,4z M30,14c-2.2,0-4-1.8-4-4s1.8-4,4-4s4,1.8,4,4
		C34,12.2,32.2,14,30,14z"/>
	<path class="st0" d="M50,24c-3.3,0-6,2.7-6,6s2.7,6,6,6s6-2.7,6-6C56,26.7,53.3,24,50,24z M50,34c-2.2,0-4-1.8-4-4s1.8-4,4-4
		s4,1.8,4,4C54,32.2,52.2,34,50,34z"/>
	<path class="st0" d="M10,20c-3.3,0-6,2.7-6,6s2.7,6,6,6s6-2.7,6-6C16,22.7,13.3,20,10,20z M10,30c-2.2,0-4-1.8-4-4s1.8-4,4-4
		s4,1.8,4,4C14,28.2,12.2,30,10,30z"/>
</g>
</svg>
