<?xml version="1.0" encoding="utf-8"?>
<!-- Generator: Adobe Illustrator 23.0.3, SVG Export Plug-In . SVG Version: 6.00 Build 0)  -->
<svg version="1.1" id="Calque_1" xmlns="http://www.w3.org/2000/svg" xmlns:xlink="http://www.w3.org/1999/xlink" x="0px" y="0px"
	 viewBox="0 0 60 60" style="enable-background:new 0 0 60 60;" xml:space="preserve">
<style type="text/css">
	.st0{fill:#FFFFFF;}
</style>
<title></title>
<g id="text">
</g>
<g id="Layer_1">
	<path class="st0" d="M45.1,4.1L45.1,4.1C45.1,4.1,45.1,4.1,45.1,4.1c-2.4-1.4-4.8-2.4-7.4-3.1l0-0.1c0,0-0.1,0-0.1,0
		C21.6-3.2,5.2,6.3,1,22.3C0,26-0.2,29.8,0.2,33.6c0.4,2.4,1,4.8,1.8,7.2l0,0c0,0,0,0,0.1,0C8,56.3,25.4,64,40.9,58S64,34.6,58,19.2
		C55.5,12.8,51,7.5,45.1,4.1z M57.7,26c-0.2,0.4-0.5,0.7-0.9,1c-3.5,3.1-11.2,0.4-16.7-5.9c-1.7-1.9-3-4.1-4.1-6.4
		c0.1-4.6,3.8-8.4,8.4-8.6C51.7,10.4,56.5,17.7,57.7,26L57.7,26z M50,30c0,4.2-1.3,8.2-3.7,11.6c-3.6-1.5-8.6-1.9-13.9-0.6
		c-4.5,0.9-8.7,3.2-11.9,6.5c-3.5-1.9-6.3-4.8-8.2-8.4c3.3-3.2,5.5-7.2,6.5-11.7c1.1-4.1,1.1-8.4,0-12.5c-0.1-0.4-0.3-0.9-0.4-1.3
		C21.7,11.3,25.8,10,30,10c0.9,0,1.9,0.1,2.8,0.2c0.7,4.6,2.8,8.8,5.9,12.2C41.6,26,45.6,28.6,50,30C50,30,50,30,50,30z M32.8,43
		c5.6-1.3,11.1-0.7,14.3,1.4c-8.9-1.5-20.2,1-27.1,8.1C21,48.5,26.1,44.6,32.8,43z M3.7,39.5c-0.4-1.2-0.8-2.5-1.1-3.8
		c1,0.6,2.1,0.9,3.2,1c0.2,0,0.4,0,0.6,0c2.8-0.1,5.4-1.1,7.6-2.8c-2.6,4.2-6.2,6.8-9.3,6C4.3,39.8,4,39.6,3.7,39.5z M34.9,10.8
		c-0.5-3,0-5.6,1.7-7c0.3-0.3,0.7-0.5,1.1-0.7c1.4,0.4,2.7,0.9,4,1.5C38.7,5.6,36.2,7.9,34.9,10.8z M35.1,2.5
		C33.6,4,32.7,6,32.7,8.2C31.8,8.1,30.9,8,30,8c-4.5,0-8.9,1.4-12.6,4c-1-1.9-2.7-3.3-4.8-3.9C19,3,27.2,1,35.1,2.5z M10.6,9.9
		c0.5,0,1,0,1.5,0.1c2.2,0.5,3.8,2.5,4.8,5.6c1,3.7,1,7.7-0.1,11.4c-0.2,0.9-0.5,1.7-0.8,2.5c-3.6,3.5-7.2,5.4-10.1,5.1
		c-1.5-0.1-2.8-0.8-3.8-1.9C2,31.9,2,30.9,2,30C2,22.4,5.1,15.1,10.6,9.9z M4.7,41.9C5.1,42,5.5,42,5.9,42c1.7,0,3.4-0.6,4.8-1.6
		c2,3.6,4.9,6.7,8.6,8.7c-1.2,1.8-1.7,3.9-1.3,6.1C12.1,52.4,7.4,47.7,4.7,41.9z M30,58c-3.3,0-6.5-0.6-9.6-1.7
		c-0.2-0.3-0.3-0.6-0.4-0.9c6.9-8.7,20.3-11.1,29.5-8.5c0.1,0.3,0.3,0.6,0.3,0.9c0.1,0.6,0.2,1.3,0.1,1.9C44.6,55,37.5,58,30,58z
		 M51.8,47.6c0-0.1,0-0.2,0-0.2c-0.5-2-1.9-3.7-3.7-4.8C50.6,39,52,34.7,52,30.3c0.3,0,0.6,0,1,0c1.8,0,3.6-0.5,5-1.7
		c0,0.4,0,0.9,0,1.3C58,36.4,55.8,42.6,51.8,47.6z"/>
</g>
</svg>
